<svg xmlns="http://www.w3.org/2000/svg" viewBox="0 0 575.9 192.5"><defs><style>.cls-1{fill:#41527c}.cls-2{fill:#b41b32}.cls-3{fill:#fff}</style></defs><g id="Layer_1"><path d="M121.6 89c-1.5 1.5-3 3-4.6 4.4 1.4-1.5 3-3 4.6-4.4" class="cls-1"/><path d="M193.8 50.9c-.3 8.3-2.3 17.4-6.2 27-2.4 5.8-5.2 11.1-8.5 15.9-17.8 26.3-47.5 37.7-78.7 39.8v-.6l2.5-12.1c1.3-9 6.4-19.2 14.2-27.5 1.6-1.4 3.2-2.8 4.6-4.4 7-7.3 12.3-16 15.5-24 2.3-5.8 3.1-11.7 2.2-17.1-1.8-10.4-9.9-18.5-26-18.5h-21l-15.1 40c-15.7 11.8-25.9 27.9-29.9 47.3-1.2 6-1.8 11.8-1.8 17.2H0L49.4 0h90.2c33.2 0 55.2 20.4 54.1 50.9Z" class="cls-2"/><path d="M223 141.1c-9.2 31.1-29.2 49.9-101.9 48.6-49.7-.9-75.2-22.1-75.6-55.8 0-5.4.5-11.2 1.8-17.2 4-19.4 14.2-35.4 29.9-47.3 15.5-11.7 36.5-19.2 62.1-21.5.9 5.4.1 11.3-2.2 17.1-3.2 8-8.5 16.7-15.5 24-1.6 1.4-3.2 2.8-4.6 4.4-7.8 8.2-12.9 18.5-14.2 27.5l-2.5 12.1v.6c.3 15.7 9.4 23.8 29.1 25.2 18.2 1.3 31.7-3.1 37.4-17.6H223Z" class="cls-1"/><path d="m233.6 96.1-54.6-.2c.2-.7.2-1.4.2-2.1 3.2-4.8 6.1-10.1 8.5-15.9 3.9-9.6 5.9-18 6.2-26.3 21.5 5 44.2 19.4 39.8 44.5ZM245.3 47.2h54.1l-3.7 11.4h-18.6L262 98h-17.9l15.1-39.4h-18.6zM338.2 46.4c13.8 0 30 9.1 24.8 27-6.2 21.2-24.6 26.1-42.5 26.1s-32.2-8.4-26-26.9c7.1-21 25.8-26.2 43.7-26.2m-14 41.8c9.2 0 16.7-4.9 20.3-15.6 3.6-10.5-1-15.6-10-15.6s-16.7 5-20.2 15.6c-3.6 10.7 1 15.6 10 15.6ZM380.5 48.2h18.9l-10.7 29.1c-2 5.8-1 10.8 6.8 10.8s11-2.8 13.7-11l10.5-28.9h17.8L426.7 80c-4.6 14-17 19.5-34.9 19.5s-25.6-8.6-22.1-19.5zM449.8 47.2h34.3c10.5 0 16.7 9 14.7 16.1-1.9 6.8-8.7 9.4-13.6 10.5l.8.8c2.8 1.1 5.4 3.7 4 9.2-2.5 9.9-1.1 11.6.3 14.1H471c-.2-2.2 0-5.2.7-7.8s1.4-10.8-2.8-10.8h-12.2L450 97.9h-17.9zm10.6 22.5h10.4c4.2 0 7-2.1 8.2-5.6 1-3.3-.3-5.5-4.5-5.5h-10.4zM548.4 64.8c.6-3.5-1-8.6-8.8-8.6-5.1 0-8.7 1.7-9.6 4.5-.6 1.6.5 3.3 2.8 3.7 4.1.8 11.7 2.7 16.5 3.4 8.9 1.7 14.9 7.5 11.9 16.4-5.6 15.7-25.8 15.2-32.8 15.2-17.3 0-31.3-5.2-27.6-19.4h20c-.8 3.8 1.2 8.4 10 8.4s8.3-.6 9-3.7c.6-2.8-5.1-5-7.2-5.6l-11.8-3c-9.9-2.2-12.9-7.2-10.5-14.7 2.2-6.6 10.3-15.8 32.5-15.8s27.8 7.2 24.9 19.1h-19.2Z" class="cls-1"/><path d="m241.1 155.6-1.1-1.4c-2 1.1-4.3 1.9-7.6 1.9-5.3 0-6.6-2.6-5.6-5.5 1-3 3.6-4.4 6.6-5.1-.5-.6-1.2-1.6-.7-3 .9-2.9 4.3-4.2 7.8-4.2s6 1.4 5.2 4c-.7 2.1-2.7 3.2-5 3.8l2.3 3c1.1-.6 2.6-2 3.8-3.1l2.1 1.9c-1.4 1.5-2.4 2.4-4.1 3.5l3.3 4.1h-6.9Zm-6-7.9c-1.3.4-2.3 1.5-2.6 2.4-.5 1.4.3 2.7 2.5 2.7s2.4-.4 3.3-.9l-3.2-4.1Zm3.5-3.5c1.4-.5 2.3-1.1 2.5-1.8.3-.7-.2-1.3-1.2-1.3s-1.9.4-2.2 1.2c-.2.6.3 1.3.8 1.9ZM261.1 138.7h18.3l-1.3 3.9h-6.3l-4.4 13.4h-5.7l4.4-13.4h-6.3zM282 138.7h13.7c4.2 0 5.1 1.9 4.2 4.8-.8 2.3-2.4 3.6-4 3.9.9.4 1.5 1.3 1.1 3.1-.8 3.4-1.2 4.5-.7 5.4H290c0-.7.2-1.8.5-2.6.9-2.7.1-3.2-1.3-3.2H284l-1.9 5.7h-5.7l5.7-17.2Zm3.2 7.7h5.5c1.4 0 2.4-.7 2.8-1.9.4-1.1-.1-1.9-1.5-1.9h-5.5zM310.1 138.7h7l1.7 17.2h-6.1v-2.8h-7.6l-1.9 2.8h-6.1l13.1-17.2Zm2.1 4.4-4.5 6.5h4.8l-.2-6.5ZM326.4 138.7h6.6l4.4 10.8 3.5-10.8h5.5l-5.7 17.2h-6.3l-4.6-10.9-3.6 10.9h-5.5zM361 143.8c.2-1.2-.4-2-3-2s-3.1.6-3.5 1.7c-.2.6.1.9.9 1.1 1.4.3 5.5.9 7.1 1.2 3 .6 4.5 1.9 3.5 4.9-2 5.8-9.5 5.9-11.8 5.9-5.8 0-9.7-1-8.4-5.8h6.8c-.3 1.3.2 2.1 3.1 2.1s3.1-.3 3.6-1.8c.3-.9-.3-1.2-2.2-1.5l-5.4-.9c-3.3-.5-4.1-2.3-3.3-4.9.7-2.2 3.2-5.5 10.7-5.5s9.5 1.5 8.5 5.6h-6.5ZM373 138.7h12.7c4.7 0 5.5 2.5 4.4 5.7-.9 2.9-3.3 5.8-7.9 5.8H375l-1.9 5.7h-5.7l5.7-17.2Zm3.1 8h5.1c1.6 0 2.5-.6 3-2.2.5-1.5 0-2.2-1.6-2.2h-5.1l-1.4 4.3ZM405.7 138.2c6 0 10.5 2 8.1 9.2-2.3 7.2-8.1 9.2-14.2 9.2s-10.5-2-8.1-9.2c2.3-7.2 8.1-9.2 14.2-9.2m-4.8 14.5c3.1 0 5.6-1.7 6.9-5.3 1.2-3.6-.3-5.3-3.4-5.3s-5.6 1.7-6.8 5.3.3 5.3 3.4 5.3ZM420.1 138.7h13.7c4.2 0 5.1 1.9 4.2 4.8-.8 2.3-2.4 3.6-4 3.9.9.4 1.5 1.3 1.1 3.1-.8 3.4-1.2 4.5-.7 5.4h-6.3c0-.7.2-1.8.5-2.6.9-2.7.1-3.2-1.3-3.2h-5.2l-1.9 5.7h-5.7l5.7-17.2Zm3.2 7.7h5.5c1.4 0 2.4-.7 2.8-1.9.4-1.1-.1-1.9-1.5-1.9h-5.5zM441.5 138.7h18.3l-1.3 3.9h-6.3l-4.4 13.4h-5.7l4.4-13.4h-6.3zM469.1 138.7h7l1.7 17.2h-6.1v-2.8h-7.6l-1.9 2.8h-6.1l13.1-17.2Zm2.1 4.4-4.5 6.5h4.8l-.2-6.5ZM485.4 138.7h18.3l-1.3 3.9h-6.3l-4.4 13.4H486l4.4-13.4h-6.3zM508.2 138.7h5.7l-5.7 17.2h-5.7zM529.9 138.2c6 0 10.5 2 8.1 9.2-2.3 7.2-8.1 9.2-14.2 9.2s-10.5-2-8.1-9.2c2.3-7.2 8.1-9.2 14.2-9.2m-4.8 14.5c3.1 0 5.6-1.7 6.9-5.3 1.2-3.6-.3-5.3-3.4-5.3s-5.6 1.7-6.8 5.3.3 5.3 3.4 5.3ZM543.2 138.7h6.6l4.4 10.8 3.5-10.8h5.5l-5.7 17.2h-6.3l-4.6-10.9-3.6 10.9h-5.5z" class="cls-2"/><path d="M226.5 170.2c-1.2.5-2.2 1.2-2.2 2.2 0 .7.3 1 1.2 1.2.2 0 .3.3.3.5 0 .6-.5 1.1-1.2 1.1s-1.6-.8-1.6-1.9c0-1.7 1.7-3 3.4-3.4v.3Zm3.6 0c-1.2.5-2.2 1.2-2.2 2.2 0 .7.4 1 1.2 1.2.2 0 .3.3.3.5 0 .6-.5 1.1-1.2 1.1s-1.6-.8-1.6-1.9c0-1.7 1.7-3 3.4-3.4v.3ZM240.1 171.4h3c-.1.5-.5 2.2-.6 3.4h-.3c0-.7-.2-1.6-.4-2-.3-.5-.6-.7-2.2-.7H238c-.7 0-.9 0-1 .8l-1.1 5.5h2.2c2 0 2.2-.3 2.9-1.9h.4l-1 4.6h-.3c0-1.8-.2-2-2.1-2h-2.2l-.8 4.4c-.4 2.1-.3 2.3 1.8 2.5v.4h-6.9v-.4c1.8-.2 1.9-.4 2.3-2.6l1.7-9c.4-2.1.4-2.4-1.5-2.6v-.4h7.6ZM252.2 179.7c0 2.4-1.2 4.9-3.3 6.2-.8.5-1.6.8-2.6.8-2.4 0-3.1-1.6-3.1-3.4 0-2.9 1.6-5.3 3.7-6.3.7-.3 1.5-.6 2.4-.6 2 0 3 1.4 3 3.4Zm-6.5 3.6c0 1.9.6 2.7 1.4 2.7 2 0 2.6-4.7 2.6-6.3s-.6-2.7-1.3-2.7c-2 0-2.6 4.6-2.6 6.3ZM254.8 178.7c1.3-1.6 2.6-2.3 3.4-2.3s.8 1.1.4 3.1l-.2.8c.8-1.6 2.2-3.9 3.4-3.9s1 .5 1 1.1-.7 1.5-1 1.7c-.2.1-.3.2-.4 0-.3-.3-.9-.8-1.2-.8-.5 0-1.3 1.5-1.6 2.3-.6 1.4-1 3.9-1.4 5.4-.8 0-1.8.3-2.3.5h-.1c.6-2.6 1.1-5.2 1.5-6.8.3-1.3.3-1.7 0-1.7-.4 0-.9.6-1.3.9zM280.9 186.4h-6.4v-.4c1.7-.3 1.9-.5 1.7-1.7-.1-1.1-.3-2.1-.4-3.5h-4.1c-.6 1.1-1.2 2.2-1.7 3.2-.6 1.3-.6 1.7 1.4 1.9v.4h-5v-.4c1.7-.2 1.9-.4 3.2-2.7l6.9-12.1h.6c.9 5.7 1.4 9 1.8 12.3.3 2 .5 2.2 2.1 2.5v.4Zm-5.9-11.5c-1 1.7-1.9 3.5-2.9 5.3h3.6zM287.7 184.2c-1.3 1.7-2.7 2.4-3.5 2.4s-1-.6-.7-2.3c.7-3.8 1.7-8.2 2.3-11.8.2-1 0-1-.9-1.2h-.4v-.3c1.2-.1 2.5-.4 3.2-.6.4-.1.6-.2.8-.2q.3 0 0 .9c-.9 4.3-1.8 8.6-2.6 13.1-.1.6 0 .9.2.9s.7-.2 1.4-1l.2.3ZM294.3 184.2c-1.3 1.7-2.7 2.4-3.5 2.4s-1-.6-.7-2.3c.7-3.8 1.7-8.2 2.3-11.8.2-1 0-1-.9-1.2h-.4v-.3c1.2-.1 2.5-.4 3.2-.6.4-.1.6-.2.8-.2q.3 0 0 .9c-.9 4.3-1.8 8.6-2.6 13.1-.1.6 0 .9.2.9s.7-.2 1.4-1l.2.3ZM314.9 171.8c-1.3.2-1.6.3-2.7 1.7-.8 1-3.5 4.9-4.1 6-.1.2-.2.4-.3.7l-.6 3.4c-.4 2-.3 2.3 1.6 2.5v.4h-6.9v-.4c2-.2 2.1-.4 2.6-2.5l.6-2.9c.1-.6 0-1-.1-1.7-.3-1.1-.8-2.7-1.4-5-.5-1.8-.6-2-2.1-2.1v-.4h6v.4l-.8.2c-.7.2-.7.3-.5 1.3.5 1.7 1.1 3.8 1.6 5.7 1.1-1.6 2.9-4.3 3.7-5.6.7-1.1.3-1.3-.5-1.5h-.6v-.5h4.6v.3ZM320.9 179.7c0 2.4-1.2 4.9-3.3 6.2-.8.5-1.6.8-2.6.8-2.4 0-3.1-1.6-3.1-3.4 0-2.9 1.6-5.3 3.7-6.3.7-.3 1.5-.6 2.4-.6 2 0 3 1.4 3 3.4Zm-6.5 3.6c0 1.9.6 2.7 1.4 2.7 2 0 2.6-4.7 2.6-6.3s-.6-2.7-1.3-2.7c-2 0-2.6 4.6-2.6 6.3ZM333.4 184.2c-1.2 1.7-2.7 2.4-3.5 2.4s-1-.5-.7-2.2c.1-.6.3-1.2.4-1.8-1.2 1.8-2.5 3-3.2 3.4-.5.3-1 .6-1.5.6-.9 0-1.6-.5-1-3.3.3-1.2.7-2.9 1-4.2.2-.7.2-1.1 0-1.1s-.9.5-1.3.9l-.2-.3c1-1.2 2.5-2.3 3.5-2.3s.9.7.5 2.7c-.4 1.6-.7 2.9-1.1 4.5-.3 1.1 0 1.4.3 1.4.7 0 1.5-.9 2.3-2.1.5-.7 1-1.6 1.2-2.8.2-1 .4-1.9.7-3.1l2.4-.6h.1c-.5 2.5-1.1 4.9-1.7 7.7-.1.6 0 .9.1.9s.7-.3 1.4-1.1l.2.3ZM335.9 178.7c1.3-1.6 2.6-2.3 3.4-2.3s.8 1.1.4 3.1l-.2.8c.8-1.6 2.2-3.9 3.4-3.9s1 .5 1 1.1-.7 1.5-1 1.7c-.2.1-.3.2-.4 0-.3-.3-.9-.8-1.2-.8-.5 0-1.3 1.5-1.6 2.3-.6 1.4-1 3.9-1.4 5.4-.8 0-1.8.3-2.3.5h-.1c.6-2.6 1.1-5.2 1.5-6.8.3-1.3.3-1.7 0-1.7-.4 0-.9.6-1.3.9zM363.9 171c-.2.7-.5 2.4-.7 3.8h-.4v-1.2c-.1-1.2-.4-1.5-1.9-1.5h-1.8l-2.2 11.4c-.4 2.1-.3 2.3 1.8 2.6v.4h-7.2v-.4c2-.2 2.2-.4 2.6-2.6l2.2-11.4H355c-1.5 0-1.9.1-2.5.8-.3.4-.7 1.1-1.1 1.9h-.3c.3-1.2.7-2.7.9-3.8h.3c.3.5.4.5 1 .5h9.1c.6 0 .7 0 1.1-.5h.3ZM362.5 178.7c1.3-1.6 2.6-2.3 3.4-2.3s.8 1.1.4 3.1l-.2.8c.8-1.6 2.2-3.9 3.4-3.9s1 .5 1 1.1-.7 1.5-1 1.7c-.2.1-.3.2-.4 0-.3-.3-.9-.8-1.2-.8-.5 0-1.3 1.5-1.6 2.3-.6 1.4-1 3.9-1.4 5.4-.8 0-1.8.3-2.3.5h-.1c.6-2.6 1.1-5.2 1.5-6.8.3-1.3.3-1.7 0-1.7-.4 0-.9.6-1.3.9zM381 184.3c-1.3 1.7-2.6 2.4-3.4 2.4s-.9-.6-.6-2.6l.2-1c-.7 1.2-1.4 1.8-2.1 2.5-.8.7-1.5 1.1-2.3 1.1s-1.5-1.1-1.5-2.6 1-4.4 2.4-5.7c.9-.9 2.7-1.9 4.5-1.9s2.2.3 2.6.4c-.5 1.9-1 4.6-1.5 7.3-.1.6 0 .8.2.8s.6-.2 1.3-.9l.2.3Zm-4.4-1.2c.6-.9.8-1.5 1-2.2.3-1 .6-2.7.7-3.4-.3-.2-.8-.3-1.6-.3-1.9 0-2.8 4.1-2.8 6.4s.3 1.4.6 1.4c.5 0 1.1-.4 2.1-1.8ZM393.4 184.4c-1.3 1.6-2.6 2.3-3.5 2.3s-1-.5-.6-2.2.8-3.3 1.1-5c.3-1.1.2-1.6-.3-1.6-.9 0-2.2 1.6-2.9 2.8-.6.9-.6 1.5-.8 2.2-.3 1.1-.5 2.4-.7 3.3-.7 0-1.7.3-2.4.5h-.1c.4-2.1 1.1-4.9 1.7-7.5.2-.7.2-1 0-1s-.9.5-1.3.9l-.2-.3c1.1-1.4 2.5-2.3 3.4-2.3s.9.7.6 2.7l-.3 1.2c1.4-2.2 3.4-3.9 4.9-3.9s1.4.3.8 3.2c-.3 1.5-.7 2.9-1 4.5-.2.6 0 .9.1.9s.6-.2 1.3-.9l.2.3ZM402.2 177.6c0 .4-.5 1.1-.9 1.2-.1 0-.3 0-.4-.1-.5-.6-1.1-1.4-1.9-1.4s-1 .5-1 1 .5 1.1 1.6 1.9c1.7 1.4 2 1.9 2 2.8 0 1.9-3 3.6-4.3 3.6s-2.3-.7-2.3-1.7.6-1.2 1-1.2c.1 0 .2 0 .3.2.9 1.1 1.6 1.6 2.4 1.6s1.1-.5 1.1-1-.3-1-1.4-1.8c-.9-.7-2-1.5-2-2.8s.3-1.6 1.5-2.5c.7-.6 1.6-1 2.4-1s1.9.5 1.9 1.3ZM408.6 176.6c.6-.2 1.4-.3 2-.3 2.2 0 3.1 1.1 3.1 3s-.7 3.2-1.8 4.5-3.3 2.6-4.3 2.7c-.3 0-.6 0-1-.2l-.7 3.8c-.2 1.1-.2 1.5 1.1 1.6h.5v.4l-6 .3v-.3c1.7-.3 1.7-.6 2-2.1.6-3 1.7-8.3 2.5-12.1-.7.2-1.3.5-1.8.8v-.4c.6-.5 1.3-.8 2-1.1l.2-1c.4-.4 1.7-1.3 2.5-1.6h.1l-.4 1.9Zm-1.7 8.6c.2.4.7.9 1.2.9 1.2 0 3-3.4 3-6.6s-.7-2.3-1.7-2.3h-.9c-.5 2.6-1.1 5.3-1.5 7.9ZM425.2 179.7c0 2.4-1.2 4.9-3.3 6.2-.8.5-1.6.8-2.6.8-2.4 0-3.1-1.6-3.1-3.4 0-2.9 1.6-5.3 3.7-6.3.7-.3 1.5-.6 2.4-.6 2 0 3 1.4 3 3.4Zm-6.5 3.6c0 1.9.6 2.7 1.4 2.7 2 0 2.6-4.7 2.6-6.3s-.6-2.7-1.3-2.7c-2 0-2.6 4.6-2.6 6.3ZM427.7 178.7c1.3-1.6 2.6-2.3 3.4-2.3s.8 1.1.4 3.1l-.2.8c.8-1.6 2.2-3.9 3.4-3.9s1 .5 1 1.1-.7 1.5-1 1.7c-.2.1-.3.2-.4 0-.3-.3-.9-.8-1.2-.8-.5 0-1.3 1.5-1.6 2.3-.6 1.4-1 3.9-1.4 5.4-.8 0-1.8.3-2.3.5h-.1c.6-2.6 1.1-5.2 1.5-6.8.3-1.3.3-1.7 0-1.7-.4 0-.9.6-1.3.9zM443.8 177.3h-2c-.5 2.4-1.2 6-1.3 6.3-.2 1-.1 1.4.2 1.4.5 0 1-.4 1.7-1.2l.2.3c-.8 1.1-2.3 2.6-3.7 2.6s-1.4-.8-.8-3.5l1.2-5.8h-1.7c0-.1.5-.7.5-.7h1.3l.5-2.4c.7-.3 1.8-.9 2.6-1.4h.2c-.3 1.1-.6 2.6-.9 3.8h2.2l-.3.6ZM454.5 184.3c-1.3 1.7-2.6 2.4-3.4 2.4s-.9-.6-.6-2.6l.2-1c-.7 1.2-1.4 1.8-2.1 2.5-.8.7-1.5 1.1-2.3 1.1s-1.5-1.1-1.5-2.6 1-4.4 2.4-5.7c.9-.9 2.7-1.9 4.5-1.9s2.2.3 2.6.4c-.5 1.9-1 4.6-1.5 7.3-.1.6 0 .8.2.8s.6-.2 1.3-.9l.2.3Zm-4.4-1.2c.6-.9.8-1.5 1-2.2.3-1 .6-2.7.7-3.4-.3-.2-.8-.3-1.6-.3-1.9 0-2.8 4.1-2.8 6.4s.3 1.4.6 1.4c.5 0 1.1-.4 2.1-1.8ZM463.1 177.3h-2c-.5 2.4-1.2 6-1.3 6.3-.2 1-.1 1.4.2 1.4.5 0 1-.4 1.7-1.2l.2.3c-.8 1.1-2.3 2.6-3.7 2.6s-1.4-.8-.8-3.5l1.2-5.8h-1.7c0-.1.5-.7.5-.7h1.3l.5-2.4c.7-.3 1.8-.9 2.6-1.4h.2c-.3 1.1-.6 2.6-.9 3.8h2.2l-.3.6ZM468.9 184.3c-1.3 1.7-2.7 2.4-3.5 2.4s-1-.7-.6-2.4c.5-2 .8-3.3 1.2-5.1.2-.7.2-1-.1-1s-.9.5-1.3.9l-.2-.3c1.1-1.2 2.7-2.3 3.6-2.3s.8.7.4 2.7c-.4 1.7-.8 3.3-1.2 4.9-.2.6 0 .9.2.9s.6-.2 1.3-.9l.2.3Zm.6-11.5c0 .8-.5 1.5-1.3 1.5s-1.1-.4-1.1-1.2.5-1.5 1.4-1.5 1 .6 1 1.2M480.5 179.7c0 2.4-1.2 4.9-3.3 6.2-.8.5-1.6.8-2.6.8-2.4 0-3.1-1.6-3.1-3.4 0-2.9 1.6-5.3 3.7-6.3.7-.3 1.5-.6 2.4-.6 2 0 3 1.4 3 3.4Zm-6.5 3.6c0 1.9.6 2.7 1.4 2.7 2 0 2.6-4.7 2.6-6.3s-.6-2.7-1.3-2.7c-2 0-2.6 4.6-2.6 6.3ZM493 184.4c-1.3 1.6-2.6 2.3-3.5 2.3s-1-.5-.6-2.2.8-3.3 1.1-5c.3-1.1.2-1.6-.3-1.6-.9 0-2.2 1.6-2.9 2.8-.6.9-.6 1.5-.8 2.2-.3 1.1-.5 2.4-.7 3.3-.7 0-1.7.3-2.4.5h-.1c.4-2.1 1.1-4.9 1.7-7.5.2-.7.2-1 0-1s-.9.5-1.3.9l-.2-.3c1.1-1.4 2.5-2.3 3.4-2.3s.9.7.6 2.7l-.3 1.2c1.4-2.2 3.4-3.9 4.9-3.9s1.4.3.8 3.2c-.3 1.5-.7 2.9-1 4.5-.2.6 0 .9.1.9s.6-.2 1.3-.9l.2.3ZM516.9 171.8c-1.6.2-1.8.5-2.2 1.7-.2.5-.4 1.5-.9 4.1l-1.8 9.1h-.6l-7-12.3-1.1 5.9c-.5 2.6-.6 3.3-.7 4.2-.2 1.1 0 1.5 2.1 1.7v.4h-5.4v-.4c1.7-.2 2-.5 2.3-1.6.3-.9.4-1.6 1-4.2l1.2-6.2c0-.3.1-.8-.2-1.3-.4-.7-.8-.9-1.9-1v-.4h4.1l6.3 10.8.9-4.6c.5-2.6.6-3.2.7-4.1.2-1.2 0-1.5-2.1-1.7v-.4h5.2v.4ZM518.9 186.7c-1.2 0-2.6-.7-2.6-3.2s.9-4.4 2.5-5.7c.9-.8 2.3-1.4 3.4-1.4s1.8.8 1.8 1.7c0 2-3.2 3-5.1 3.5v.8c0 1.5.4 2.7 1.7 2.7s1.8-.4 2.8-1.5l.2.3c-1.7 2.1-3.5 2.7-4.6 2.7Zm0-5.6c2.3-.4 2.9-1.7 2.9-2.8s-.3-1.1-.9-1.1-1.7.8-2 4ZM528.4 186.7c-1.2 0-2.6-.7-2.6-3.2s.9-4.4 2.5-5.7c.9-.8 2.3-1.4 3.4-1.4s1.8.8 1.8 1.7c0 2-3.2 3-5.1 3.5v.8c0 1.5.4 2.7 1.7 2.7s1.8-.4 2.8-1.5l.2.3c-1.7 2.1-3.5 2.7-4.6 2.7Zm0-5.6c2.3-.4 2.9-1.7 2.9-2.8s-.3-1.1-.9-1.1-1.7.8-2 4ZM545.3 184.2c-1.3 1.7-2.8 2.4-3.6 2.4s-1-.5-.6-2.4l.3-1.2c-1.4 2-3.2 3.6-4.5 3.6s-1.6-.8-1.6-2.7.9-4.6 2.4-5.9c1.2-1.1 3.1-1.6 3.9-1.6s.7 0 1.2.1l.8-4c.2-1 0-1-.9-1.2h-.4v-.3c1.1 0 2.6-.4 3.3-.6.4-.1.7-.2.8-.2.2 0 .2.1.1.6-.9 4.2-2.1 9.5-2.8 13.3-.1.6 0 .8.2.8s.6-.2 1.4-1l.2.3Zm-4-1.7c.3-.5.5-1.2.6-1.9l.6-3c-.4-.5-1.2-.6-1.7-.6-1.9 0-2.9 4.5-2.9 6.6s.3 1.4.7 1.4c.7 0 1.7-.9 2.7-2.5M554.2 177.6c0 .4-.5 1.1-.9 1.2-.1 0-.3 0-.4-.1-.5-.6-1.1-1.4-1.9-1.4s-1 .5-1 1 .5 1.1 1.6 1.9c1.7 1.4 2 1.9 2 2.8 0 1.9-3 3.6-4.3 3.6s-2.3-.7-2.3-1.7.6-1.2 1-1.2c.1 0 .2 0 .3.2.9 1.1 1.6 1.6 2.4 1.6s1.1-.5 1.1-1-.3-1-1.4-1.8c-.9-.7-2-1.5-2-2.8s.3-1.6 1.5-2.5c.7-.6 1.6-1 2.4-1s1.9.5 1.9 1.3ZM556.6 174.9c1.2-.5 2.1-1.2 2.1-2.2 0-.7-.5-1-1.1-1.2-.2 0-.3-.3-.3-.5 0-.6.5-1.1 1.2-1.1s1.5.8 1.5 1.9c0 1.7-1.7 3-3.3 3.4v-.3Zm3.6 0c1.2-.5 2.1-1.2 2.1-2.2 0-.7-.5-1-1.1-1.2-.2 0-.3-.3-.3-.5 0-.6.5-1.1 1.2-1.1s1.5.8 1.5 1.9c0 1.7-1.7 3-3.3 3.4v-.3Z" class="cls-1"/><path d="M140.2 103.2v12h428.5l7.2-12z" class="cls-2"/><path d="M92.3 120.8v11h465.9l7.2-11z" class="cls-1"/><path d="m194.9 124.7 1.8-4.4 1.8 4.5 4.8.4-3.7 3 1.1 4.7-4.1-2.6-4.1 2.5 1.2-4.7-3.7-3.1zM291.5 124.7l1.9-4.4 1.7 4.5 4.8.4-3.7 3 1.1 4.7-4.1-2.6-4.1 2.5 1.2-4.7-3.6-3.1zM396.9 124.7l1.9-4.4 1.7 4.5 4.9.4-3.8 3 1.1 4.7-4-2.6-4.2 2.5 1.3-4.7-3.7-3.1zM499.3 124.7l1.9-4.4 1.7 4.5 4.8.4-3.7 3 1.1 4.7-4.1-2.6-4.1 2.5 1.2-4.7-3.6-3.1z" class="cls-3"/></g></svg>