<svg xmlns="http://www.w3.org/2000/svg" xml:space="preserve" viewBox="0 0 1042.7 393.8"><style>.st0{fill:#fff}</style><g id="Layer_1"><path d="M980 208.3c-5.5 13.9-11.2 21.1-26.4 21-234.9-.5-469.7-.3-704.6-.2h-19.1c8.6-13.2 14.9-23.8 22.2-33.7 4.8-6.5 10.4-12.6 16.6-17.7 16.6-13.5 20.8-30.9 18.7-51.1-2-19.9-10.2-29.2-29.9-32.1-.5-.1-1-.1-1.4-.2-39.6-4.9-40-5-53 32-5.3 15.1-12.5 27.9-24.4 39.3-23.7 22.6-38.2 50.8-45.5 82.7-.9 3.8-5.6 9.5-8.8 9.7-18 .9-36.1.5-55.9.5 1.3-5.1 1.8-8.6 3-11.9 23.7-63.8 47.5-127.6 71-191.5 2.7-7.4 5.5-12.3 14.8-12.1 44.9.9 90-.1 134.8 2.4 16.4.9 33.8 7.3 48.3 15.5 31.7 17.9 40.5 46.2 28.8 89.6-5.2 19.4-14.8 37.6-22.9 57.7 210.1.1 421 .1 633.7.1" class="st0"/><path d="M229.2 257.8c-.8 19.2 9.9 32.7 30.7 35.3 26.1 3.3 53.4 7.1 69.6-22.3 1.1-2 4.6-3.7 7-3.7 28.1-.3 56.3-.2 86-.2-4.7 22.6-15 39.6-32.2 52.1-21 15.3-45 23.2-70.8 24-26.8.8-53.7 1.9-80.3-.4-18.5-1.6-38-5.9-54.6-14-38.7-18.9-54.7-56.9-40.3-97.2 21.6-60.6 68.6-103.5 135.5-104.4 6.2 19.2-.8 36.1-18.7 52.5-11.5 10.5-21.5 22.7-30.9 35.1-3.9 5.2-4.5 13-7.1 21.2h739.1c-3.2 13.3-8 21.4-22.9 20.8-21.1-.9-700.3.8-710.1 1.2M923.4 176.1c-11.2-3-20.1-5.3-29-7.9-10.6-3-20.5-7.8-21-20.2-.6-11.8 7.3-19.4 17.5-23.8 20.7-8.9 41.9-8.5 62.7-.9 5.4 2 10.6 6.8 13.8 11.7 5.6 8.6 2 14.5-8.3 14.5-9.8 0-20.3 3.2-27.2-9.3-1.9-3.4-13.4-1.4-20.5-1.9-.2 2.2-.5 4.3-.7 6.5 8.4 2.2 16.9 4.1 25.2 6.7 11 3.4 23.2 6.4 23.7 20.9.5 14.7-9.6 24.1-22.2 26-18.9 2.8-38.5 2.5-57.8 1.8-5.7-.2-12.4-5.4-16.3-10.3-3-3.7-3.8-10.6-2.8-15.6.4-2.1 7.9-4.1 12-3.9 8.9.4 18.7-4.2 25.2 9.1 3.7 7.7 15.6 6.3 25.7-3.4M852.3 199.1c-6 .3-11.2.2-16.3.8-11.5 1.2-16.8-2.2-14.6-15.1.8-4.3-2.9-12.3-6.5-13.8-7.4-3.1-13.9-.6-17.4 8.9-8.2 22.2-14 24.4-39.8 17.1 9.1-24.4 18-48.8 27.5-72.9 1.2-2.9 6.3-6 9.7-6.1 15.2-.6 30.5-.7 45.7.1 11.5.7 23.6 2.7 26.6 16.9 2.9 13.7-5.4 21.1-15 25.2.1 13.3.1 25.5.1 38.9m-41.8-44.5c9.3-4.3 16.2-7.4 23-10.6-2-2-3.7-5.5-5.9-5.8-8.7-1.4-17.3-1.5-17.1 16.4" class="st0"/><path d="M704.1 119.9c-5.9 16.4-11.6 29.5-15.2 43.1-1.5 5.7-.9 16.4 2.4 18.2 8.4 4.6 16.8.3 20.9-8.9 4.6-10.4 8.6-21.1 12.5-31.8 8.6-23 12.1-24.8 40.8-17.8-8.7 21.2-15.4 43.1-26.5 62.6-12.1 21.4-62.8 26.1-80 8.4-4.9-5-7.2-15.8-5.7-22.9 3.1-14.7 9.2-29 15-43 1.4-3.4 6.4-6.9 10.2-7.5 7.3-1.3 15-.4 25.6-.4M381 128.3c49.1 13.5 65.9 39.8 57.2 69.2h-79.5c7.5-23.2 14.7-45.6 22.3-69.2M453.9 200.9c7.5-20.7 14.2-39.2 21.5-59.1-10.4-.8-18.2-1.3-26.1-1.9.1-15.9 7.3-21.2 22.5-20.4 22.8 1.2 45.7.3 69.3.3-.3 15-4.8 23.4-20.2 21-8.6-1.3-13 2.4-15.5 10.6-3.4 11.4-9.2 22.1-12 33.6-3.5 14.5-11.7 19.4-25.8 17.1-3.6-.6-7.4-.7-13.7-1.2M632.5 123.7c-25.1-14.3-66.9-7.4-85.4 14.5-10.5 12.5-17.6 26.8-10.6 43.2 6.6 15.5 21.4 19 36.6 20.7 3.7.5 7.6.1 11.4.1 33.5.3 55.3-13.9 62.7-40.7 4.5-16.4-.7-29.8-14.7-37.8m-19 31.9c-4 16.3-15.6 26.9-29.2 26.8-13.3-.1-18.8-7.7-14.9-20.7 4.7-15.7 16-25.7 28.8-25.6 12.4.1 18.3 7.6 15.3 19.5M484.2 287.7l5 3c-.5.9-1.1 1.9-1.8 2.9-.8 1.1-1.4 1.9-2.1 2.5.9 1 2.1 2.1 3.5 3.3l-4.4 4.6q-.75-.45-2.1-1.5c-.8-.7-1.6-1.3-2.1-2-1.2.9-2.6 1.7-4.4 2.3q-2.7.9-5.7.9c-3.7 0-6.6-1-8.7-2.9s-3.1-4.3-3.1-7.2c0-1.8.4-3.5 1.2-5s1.9-2.9 3.2-4c1-.8 2.5-1.8 4.7-2.9-1-2.3-1.6-4.3-1.6-6q0-3.75 2.7-6.3c2.7-2.55 4.2-2.5 7.2-2.5 2.6 0 4.6.7 6.1 2s2.2 2.9 2.2 4.7c0 1.5-.6 3.2-1.9 5s-3.4 3.4-6.3 4.9c.9 1.5 2.1 3.3 3.4 5.3.8 1.2 1.5 2.1 2 2.6.9-.5 1.9-1.9 3-3.7m-14.2-1q-4.8 2.4-4.8 6.3c0 1.5.5 2.7 1.4 3.7 1 1 2.2 1.4 3.8 1.4 1.9 0 3.9-.7 5.9-2-2.4-2.9-4.5-6.1-6.3-9.4m3.3-7.7c1.9-1 3.2-1.9 4-2.9.5-.7.8-1.4.8-2.2 0-.7-.2-1.2-.7-1.6-.4-.4-1.1-.6-1.8-.6-1 0-1.8.3-2.4 1s-1 1.5-1 2.6c.1 1 .4 2.2 1.1 3.7M521.3 303.2H514l6.2-29.6h-10.4l1.2-5.9h28l-1.2 5.9h-10.3zM543.6 303.2h-7.3l7.4-35.5h15.8c2.7 0 4.8.3 6.3.8 1.5.6 2.7 1.6 3.7 3.1.9 1.5 1.4 3.3 1.4 5.4q0 4.5-2.7 7.5c-2.7 3-4.5 3.2-8.2 3.6.9.8 1.8 1.9 2.6 3.3 1.6 2.8 3.4 6.7 5.5 11.8h-7.8c-.6-2-1.9-5.1-3.7-9.4-1-2.3-2.1-3.8-3.2-4.6-.7-.5-1.9-.7-3.6-.7h-3zm4.2-20h3.9c3.9 0 6.5-.2 7.8-.7s2.3-1.2 3-2.2 1.1-2.1 1.1-3.1c0-1.3-.5-2.3-1.6-2.9q-.9-.6-4.2-.6h-8zM595.2 295.3h-14.1l-4.3 7.8h-7.5l20.1-35.5h8.1l5.8 35.5h-6.9zm-.9-5.9-2.1-14.3-8.6 14.3zM636.2 303.2h-6.8l-9.6-23.9-5 23.9H608l7.4-35.5h6.8l9.6 23.8 5-23.8h6.8zM644.7 291.7l7-.4c.1 2.2.5 3.7 1.1 4.5 1.1 1.3 3 1.9 5.9 1.9 2.4 0 4.1-.4 5.2-1.3s1.6-1.9 1.6-3.1c0-1-.4-1.9-1.3-2.7-.6-.5-2.3-1.4-5.1-2.6s-4.8-2.2-6-3c-1.3-.8-2.3-1.8-3-3.1s-1.1-2.8-1.1-4.5c0-3 1.1-5.5 3.2-7.4s5.3-3 9.4-3c4.2 0 7.4 1 9.7 2.9 2.3 2 3.5 4.6 3.8 7.8l-7 .3q-.3-2.55-1.8-3.9c-1.5-1.35-2.6-1.4-4.6-1.4s-3.5.4-4.3 1.1c-.9.7-1.3 1.6-1.3 2.7 0 1 .4 1.9 1.2 2.5.8.7 2.5 1.6 5.3 2.8 4.1 1.8 6.7 3.2 7.8 4.3 1.7 1.6 2.5 3.7 2.5 6.2 0 3.1-1.2 5.8-3.7 8s-5.9 3.3-10.4 3.3c-3.1 0-5.7-.5-7.9-1.5s-3.8-2.5-4.7-4.3c-1.1-1.6-1.6-3.7-1.5-6.1M684 303.2h-7.3l7.4-35.5h14.4c2.6 0 4.6.3 6.1.9s2.7 1.6 3.5 3 1.3 3.1 1.3 5c0 1.8-.3 3.5-1 5.2s-1.5 3.1-2.6 4.1c-1 1-2.1 1.8-3.3 2.3s-2.7.9-4.7 1.2c-1.1.2-3.3.2-6.4.2h-4.7zm4-19.4h2.3c3.9 0 6.4-.2 7.7-.7s2.3-1.3 3.1-2.3c.7-1.1 1.1-2.2 1.1-3.5q0-1.35-.6-2.1c-.4-.5-.9-.9-1.6-1.2-.7-.2-2.2-.4-4.6-.4h-5.2zM712.1 289.3q0-3.15.9-6.6c.8-3.1 2.1-5.8 3.8-8.1s3.8-4.1 6.4-5.4 5.5-2 8.8-2c4.4 0 7.9 1.4 10.6 4.1s4.1 6.3 4.1 10.9c0 3.7-.9 7.4-2.6 10.9q-2.7 5.25-7.2 8.1c-4.5 2.85-6.4 2.8-10.2 2.8-3.3 0-6.1-.8-8.3-2.3s-3.8-3.4-4.8-5.6c-1.1-2.3-1.5-4.6-1.5-6.8m7.2-.2c0 2.4.7 4.5 2.2 6.1s3.4 2.5 5.9 2.5c2 0 3.9-.6 5.7-2 1.8-1.3 3.3-3.3 4.5-5.9s1.8-5.2 1.8-7.7c0-2.8-.8-5-2.3-6.6s-3.4-2.4-5.7-2.4c-3.6 0-6.5 1.7-8.7 5s-3.4 7-3.4 11M755.8 303.2h-7.3l7.4-35.5h15.8c2.7 0 4.8.3 6.3.8 1.5.6 2.7 1.6 3.7 3.1.9 1.5 1.4 3.3 1.4 5.4q0 4.5-2.7 7.5c-2.7 3-4.5 3.2-8.2 3.6.9.8 1.8 1.9 2.6 3.3 1.6 2.8 3.4 6.7 5.5 11.8h-7.8c-.6-2-1.9-5.1-3.7-9.4-1-2.3-2.1-3.8-3.2-4.6-.7-.5-1.9-.7-3.6-.7h-3zm4.2-20h3.9c3.9 0 6.5-.2 7.8-.7s2.3-1.2 3-2.2 1.1-2.1 1.1-3.1c0-1.3-.5-2.3-1.6-2.9q-.9-.6-4.2-.6h-8zM798.7 303.2h-7.3l6.2-29.6h-10.4l1.2-5.9h28l-1.2 5.9h-10.3zM833.1 295.3H819l-4.3 7.8h-7.5l20.1-35.5h8.1l5.8 35.5h-6.9zm-.9-5.9-2.1-14.3-8.6 14.3zM857.5 303.2h-7.3l6.2-29.6H846l1.2-5.9h28l-1.2 5.9h-10.3zM872 303.2l7.4-35.5h7.3l-7.4 35.5zM888.4 289.3q0-3.15.9-6.6c.8-3.1 2.1-5.8 3.8-8.1s3.8-4.1 6.4-5.4 5.5-2 8.8-2c4.4 0 7.9 1.4 10.6 4.1s4.1 6.3 4.1 10.9c0 3.7-.9 7.4-2.6 10.9q-2.7 5.25-7.2 8.1c-4.5 2.85-6.4 2.8-10.2 2.8-3.3 0-6.1-.8-8.3-2.3s-3.8-3.4-4.8-5.6c-1-2.3-1.5-4.6-1.5-6.8m7.2-.2c0 2.4.7 4.5 2.2 6.1s3.4 2.5 5.9 2.5c2 0 3.9-.6 5.7-2 1.8-1.3 3.3-3.3 4.5-5.9s1.8-5.2 1.8-7.7c0-2.8-.8-5-2.3-6.6s-3.4-2.4-5.7-2.4c-3.6 0-6.5 1.7-8.7 5s-3.4 7-3.4 11M953.1 303.2h-6.8l-9.6-23.9-5 23.9h-6.8l7.4-35.5h6.8l9.6 23.8 5-23.8h6.8zM449 327.8c-1.8 1-3 2.2-3 3.3 0 .4.3.9.7 1.1l1.2-1c.7.2 1.3.9 1.3 2 0 2-1.6 2.7-2.6 2.7-2.1 0-2.8-1.4-2.8-2.7 0-2.6 2.1-4.2 5.1-5.8zm6.4 0c-1.8 1-3 2.2-3 3.3 0 .4.3.9.7 1.1l1.2-1c.7.2 1.3.9 1.3 2 0 2-1.6 2.7-2.6 2.7-2.1 0-2.8-1.4-2.8-2.7 0-2.6 2.1-4.2 5.1-5.8zM474.3 329l-.7 6h-.5c-.6-4.6-2.3-5.4-6-5.4h-1.4l-1.6 10.1h.8c2 0 3.7-1.4 4.7-4.2h.4l-1.5 9.1h-.5c0-3.5-1.4-4.2-3.6-4.2h-.5l-1.6 9.5h2.7l-.1.6h-10l.1-.6h1.7l3.4-20.4h-1.8l.1-.6h15.9zM472 345.1c0-5.5 3.1-9.5 9-9.5 4.1 0 6.3 1.7 6.3 5.5 0 6.5-3.7 9.7-9 9.7-4.2.1-6.3-1.9-6.3-5.7m10.2-6.8c0-1.4-.4-2.2-1.3-2.2-1.9 0-2.4 2.4-3.3 7.3-.3 2-.5 3.7-.5 4.8 0 1.4.4 2.1 1.4 2.1 1.7 0 2.2-1.7 3.1-7.4.4-1.9.6-3.4.6-4.6M490.1 344.5l1.1-8h-2.1l.1-.6h7.6l-1.3 5.8h.2c.9-2.4 3.1-6.1 6.6-6.1 1.4 0 2.9.7 2.9 2.7s-1.3 3-2.9 3c-.7 0-1.4-.2-2.1-.5l-.2-2.6c-1.7.1-3.3 2.3-4.1 5.7-.6 2.8-.8 4.7-.9 6.5-1.3-.1-4.6.2-6.2.4zM521.2 343.3h-6.3l-3.3 6.6h2.5l-.1.6h-5l.1-.6h1.7l10.6-20.9h3.7l3 20.9h1.8l-.1.6h-9.6l.1-.6h1.7zm-6-.6h5.9l-1.1-9.3zM539.9 348.2c-1.4 2-2.5 2.7-4.5 2.7-2.8 0-4.2-1.2-4.2-3.9 0-1.1.1-2.1 1-6.6l2.5-12.4h-2.2l.1-.6h7.9l-3.6 19.1c-.2.8-.3 1.6-.3 2.1 0 .6.2.9.8.9.5 0 1.2-.4 2.1-1.8zM550.8 348.2c-1.4 2-2.5 2.7-4.5 2.7-2.8 0-4.2-1.2-4.2-3.9 0-1.1.1-2.1 1-6.6l2.5-12.4h-2.2l.1-.6h7.9l-3.6 19.1c-.2.8-.3 1.6-.3 2.1 0 .6.2.9.8.9.5 0 1.2-.4 2.1-1.8zM575.8 329.6h-2.1l.1-.6h4.5l-.2.6h-1.4l-7.3 11.1-1.6 9.2h2.5l-.1.6h-10.6l.1-.6h2.5l1.5-9.2-3.6-11.2h-1.8l.1-.6h10l-.2.6h-2.1l3 10.1zM573.8 345.1c0-5.5 3.1-9.5 9-9.5 4.1 0 6.3 1.7 6.3 5.5 0 6.5-3.7 9.7-9 9.7-4.2.1-6.3-1.9-6.3-5.7m10.1-6.8c0-1.4-.4-2.2-1.3-2.2-1.9 0-2.4 2.4-3.3 7.3-.3 2-.5 3.7-.5 4.8 0 1.4.4 2.1 1.4 2.1 1.7 0 2.2-1.7 3.1-7.4.4-1.9.6-3.4.6-4.6M593.3 336.5h-2.1l.1-.6h7.9c-1.3 5.8-2.1 9.2-2.4 11.4-.1.8-.3 1.8.7 1.8 1.4 0 2.9-3.2 3.8-7.6.3-1.8.7-3.9.7-5.3 1 0 5.3-.2 6.2-.4-.8 3.7-1.8 9.1-2.2 11.9-.1 1-.2 2 .7 2 .6 0 1.2-.5 2-1.7l.5.4c-1.3 1.9-2.6 2.5-4.4 2.5-3.4 0-4.6-1.8-3.5-5.3l-.2-.1c-1.1 3-2.6 5.3-6.2 5.3-2.9 0-3.9-2-3.4-4.7.4-2.5 1.4-7.8 1.8-9.6M611.4 344.5l1.1-8h-2.1l.1-.6h7.6l-1.3 5.8h.2c.9-2.4 3.1-6.1 6.6-6.1 1.4 0 2.9.7 2.9 2.7s-1.3 3-2.9 3c-.7 0-1.4-.2-2.1-.5l-.2-2.6c-1.7.1-3.3 2.3-4.1 5.7-.6 2.8-.8 4.7-.9 6.5-1.3-.1-4.6.2-6.2.4zM652.8 336.6h-.6c-.3-5.6-1.7-7-5.1-7h-.1l-3.4 20.3h3l-.1.6H635l.1-.6h2.8l3.4-20.3h-.2c-3.7 0-5.4 1.9-7.4 7h-.6l1.6-7.6h18.8zM654.7 344.5l1.1-8h-2.1l.1-.6h7.6l-1.3 5.8h.2c.9-2.4 3.1-6.1 6.6-6.1 1.4 0 2.9.7 2.9 2.7s-1.3 3-2.9 3c-.7 0-1.4-.2-2.1-.5l-.2-2.6c-1.7.1-3.3 2.3-4.1 5.7-.6 2.8-.8 4.7-.9 6.5-1.3-.1-4.6.2-6.2.4zM687.7 348.2c-1.1 1.8-2.4 2.6-4.1 2.6-3 0-4.2-1.5-3.7-4h-.2c-.8 2.4-2.4 4.1-5.1 4.1-3.6 0-5-2.1-5-5.4 0-5.7 2.6-9.9 7.6-9.9 2.3 0 3 .9 3.4 2l.4-1.6c1.5 0 4.4 0 5.6-.2-.8 3.8-1.6 7.4-2.2 11.8-.1.4-.1.8-.1 1.1 0 .8.4 1 .8 1 .5 0 1.1-.3 2-1.7zm-8.4-2c.7-2.2 1.1-4.7 1.1-7.2 0-1.8-.9-2.6-1.7-2.6-.9 0-1.6.9-2.2 3-.7 2.4-1.2 5.8-1.2 8 0 1 .1 2.2 1.3 2.2.9.1 2-1 2.7-3.4M698.1 347.4c0-1.9 1.4-6.2 1.8-7.4.5-1.7.8-2.8-.2-2.8-1.1 0-1.9 1.2-2.8 3-1.5 3-1.8 6.6-2.2 10.3-1 0-5.3.1-6.1.3l1.3-5.8 1.2-8.5H689l.1-.6h7.8l-1.2 5h.1c1.1-2.8 2.6-5.4 6.4-5.4 2.3 0 3.4 1.3 3.4 3.3 0 .7-.1 1.5-.3 2.2l-1.5 5.9c-.2.9-.3 1.4-.3 1.8 0 .6.3.7.7.7.6 0 1.1-.3 2.1-1.8l.5.3c-1 1.7-2.2 2.7-4.5 2.7-2.4.3-4.2-.7-4.2-3.2M716.3 347.8c0-1.7-1.4-2.1-3.4-2.9-1.8-.6-3.7-1.7-3.7-4.2 0-3.4 3.3-5.1 7.5-5.1 2.5 0 5.5.4 5.5 3.1 0 1.4-1 2.3-2.6 2.3-1.1 0-2.1-.6-2.1-1.5 0-.5.1-1 .5-1.4h1c.1-.3.2-.5.2-.7 0-.7-.7-1.1-2.1-1.1-2.3 0-3.3 1-3.3 2.1 0 1.5 1.1 1.9 3.1 2.7 2.1.8 4.3 1.6 4.3 4.2 0 3.8-3.5 5.6-8.1 5.6-3.4 0-5.8-1.1-5.8-3.4 0-1.7 1.1-2.6 2.6-2.6 1.3 0 2 .8 2 1.9 0 .4-.1.8-.3 1.3h-1.2c-.1.2-.1.4-.1.6 0 .8.7 1.5 2.5 1.5 2.9 0 3.5-1.4 3.5-2.4M722.4 357.3l3.5-20.9h-2.5l.1-.6h7.8l-.9 4h.1c1.1-2.6 2.7-4.3 5.8-4.3 2.8 0 4.5 1.9 4.5 5.4 0 6-3.6 9.9-7.6 9.9-2.3 0-3.4-1-3.8-2.4l-1.5 8.9h3.6l-.1.6h-11.1l.1-.6zm8.9-17.2c-1 2.5-1.2 5.2-1.2 7.4 0 1.5.6 2.4 1.6 2.4 1.4 0 2.1-1.9 2.7-5 .4-2.1.8-4.6.8-6.2 0-1.4-.6-1.8-1.2-1.8-.8 0-1.8 1.1-2.7 3.2M742.2 345.1c0-5.5 3.1-9.5 9-9.5 4.1 0 6.3 1.7 6.3 5.5 0 6.5-3.7 9.7-9 9.7-4.2.1-6.3-1.9-6.3-5.7m10.1-6.8c0-1.4-.4-2.2-1.3-2.2-1.9 0-2.4 2.4-3.3 7.3-.3 2-.5 3.7-.5 4.8 0 1.4.4 2.1 1.4 2.1 1.7 0 2.2-1.7 3.1-7.4.5-1.9.6-3.4.6-4.6M760.3 344.5l1.1-8h-2.1l.1-.6h7.6l-1.3 5.8h.2c.9-2.4 3.1-6.1 6.6-6.1 1.4 0 2.9.7 2.9 2.7s-1.3 3-2.9 3c-.7 0-1.4-.2-2.1-.5l-.2-2.6c-1.7.1-3.3 2.3-4.1 5.7-.6 2.8-.8 4.7-.9 6.5-1.3-.1-4.6.2-6.2.4zM784 336.5l-1.3 6.5c-.4 1.8-.8 3.6-.8 4.8 0 1 .2 1.6 1.3 1.6 1 0 1.8-.7 3-2.9l.6.3c-1.2 2.1-2.7 4.1-5.7 4.1-3.6 0-4.5-2.1-4.5-3.9 0-1.1.2-2.6.6-4.3l1.2-6.3H776l.1-.6h2.2l.6-3.2 5.3-1.2h.6l-.7 4.3h3.2l-.1.6H784zM805.7 348.2c-1.1 1.8-2.4 2.6-4.1 2.6-3 0-4.2-1.5-3.7-4h-.2c-.8 2.4-2.4 4.1-5.1 4.1-3.6 0-5-2.1-5-5.4 0-5.7 2.6-9.9 7.6-9.9 2.3 0 3 .9 3.4 2l.4-1.6c1.5 0 4.4 0 5.6-.2-.8 3.8-1.6 7.4-2.2 11.8-.1.4-.1.8-.1 1.1 0 .8.4 1 .8 1 .5 0 1.1-.3 2-1.7zm-8.5-2c.7-2.2 1.1-4.7 1.1-7.2 0-1.8-.9-2.6-1.7-2.6-.9 0-1.6.9-2.2 3-.7 2.4-1.2 5.8-1.2 8 0 1 .1 2.2 1.3 2.2.9.1 2-1 2.7-3.4M814.9 336.5l-1.3 6.5c-.4 1.8-.8 3.6-.8 4.8 0 1 .2 1.6 1.3 1.6 1 0 1.8-.7 3-2.9l.6.3c-1.2 2.1-2.7 4.1-5.7 4.1-3.6 0-4.5-2.1-4.5-3.9 0-1.1.2-2.6.6-4.3l1.2-6.3h-2.2l.1-.6h2.2l.6-3.2 5.3-1.2h.6l-.7 4.3h3.2l-.1.6h-3.4zM827.2 348.2c-1.1 1.7-2.2 2.7-4.5 2.7s-3.9-1-3.9-3.6c0-.7.2-2 .4-3l1.6-7.8h-2.4l.1-.6h8.2c-1.2 6-1.8 8.6-2.2 10.8-.1.8-.3 1.6-.3 2.2s.3.7.6.7c.6 0 1.2-.6 2-1.8zm-6.6-16.8c0-2.1 1.8-3.3 4-3.3 1.8 0 2.8.8 2.8 2.3 0 2.1-1.9 3.3-4 3.3-2.2 0-2.8-1.3-2.8-2.3M828.4 345.1c0-5.5 3.1-9.5 9-9.5 4.1 0 6.3 1.7 6.3 5.5 0 6.5-3.7 9.7-9 9.7-4.2.1-6.3-1.9-6.3-5.7m10.1-6.8c0-1.4-.4-2.2-1.3-2.2-1.9 0-2.4 2.4-3.3 7.3-.3 2-.5 3.7-.5 4.8 0 1.4.4 2.1 1.4 2.1 1.7 0 2.2-1.7 3.1-7.4.5-1.9.6-3.4.6-4.6M854.6 347.4c0-1.9 1.4-6.2 1.8-7.4.5-1.7.8-2.8-.2-2.8-1.1 0-1.9 1.2-2.8 3-1.5 3-1.8 6.6-2.2 10.3-1 0-5.3.1-6.1.3l1.3-5.8 1.2-8.5h-2.2l.1-.6h7.8l-1.2 5h.1c1.1-2.8 2.6-5.4 6.4-5.4 2.3 0 3.4 1.3 3.4 3.3 0 .7-.1 1.5-.3 2.2l-1.5 5.9c-.2.9-.3 1.4-.3 1.8 0 .6.3.7.7.7.6 0 1.1-.3 2.1-1.8l.5.3c-1 1.7-2.2 2.7-4.5 2.7-2.4.3-4.1-.7-4.1-3.2M885.5 350.5h-4.7l-6-20.4h-.1l-3.3 19.9h1.9l-.1.6h-4.9l.1-.6h2.1l3.4-20.4h-2.2l.1-.6h8.2l5.3 16.6h.2l2.6-16.1H886l.1-.6h4.5l-.1.6H889zM904.2 339.1c0 3-3.3 3.9-6.2 4.3-1 .1-1.8.2-2.4.2-.4 4.3.4 6.2 2.6 6.2 1.5 0 3.2-1.1 4.2-4.4l.6.2c-1.1 3.8-3.4 5.4-7.1 5.4-3.9 0-6.2-2.1-6.2-5.7 0-6.3 3.8-9.5 9.3-9.5 3.5-.2 5.2 1 5.2 3.3m-5.4-2.9c-1.7 0-2.6 3-3.1 6.8 2.1-.1 4-1.1 4-4.9 0-1.2-.2-1.9-.9-1.9M919.5 339.1c0 3-3.3 3.9-6.2 4.3-1 .1-1.8.2-2.4.2-.4 4.3.4 6.2 2.6 6.2 1.5 0 3.2-1.1 4.2-4.4l.6.2c-1.1 3.8-3.4 5.4-7.1 5.4-3.9 0-6.2-2.1-6.2-5.7 0-6.3 3.8-9.5 9.3-9.5 3.5-.2 5.2 1 5.2 3.3m-5.4-2.9c-1.7 0-2.6 3-3.1 6.8 2.1-.1 4-1.1 4-4.9 0-1.2-.2-1.9-.9-1.9M936.7 339.8c-.5 2.9-1 5.5-1.4 7.8-.1.4-.1.8-.1 1.1 0 .8.4 1 .8 1 .5 0 1.1-.3 2-1.7l.5.3c-1.1 1.8-2.5 2.6-4.2 2.6-3 0-4.2-1.5-3.7-4h-.2c-.8 2.4-2.4 4.1-5.1 4.1-3.6 0-5-2.1-5-5.4 0-5.7 2.6-9.9 7.6-9.9 2.2 0 3 1 3.5 2.4l1.5-9.9h-2l.1-.6h7.8zm-6.7 6.4c.7-2.2 1.1-4.7 1.1-7.2 0-1.8-.9-2.6-1.7-2.6-.9 0-1.6.9-2.2 3-.7 2.4-1.2 5.8-1.2 8 0 1 .1 2.2 1.3 2.2.9.1 2-1 2.7-3.4M947.9 347.8c0-1.7-1.4-2.1-3.4-2.9-1.8-.6-3.7-1.7-3.7-4.2 0-3.4 3.3-5.1 7.5-5.1 2.5 0 5.5.4 5.5 3.1 0 1.4-1 2.3-2.6 2.3-1.1 0-2.1-.6-2.1-1.5 0-.5.1-1 .5-1.4h1c.1-.3.2-.5.2-.7 0-.7-.7-1.1-2.1-1.1-2.3 0-3.3 1-3.3 2.1 0 1.5 1.1 1.9 3.1 2.7 2.1.8 4.3 1.6 4.3 4.2 0 3.8-3.5 5.6-8.1 5.6-3.4 0-5.8-1.1-5.8-3.4 0-1.7 1.1-2.6 2.6-2.6 1.3 0 2 .8 2 1.9 0 .4-.1.8-.3 1.3H942c-.1.2-.1.4-.1.6 0 .8.7 1.5 2.5 1.5 2.8 0 3.5-1.4 3.5-2.4M956.4 336.2c1.8-1 3-2.2 3-3.3 0-.4-.3-.9-.7-1.1l-1.2 1c-.7-.2-1.3-.9-1.3-2 0-2 1.6-2.7 2.6-2.7 2.1 0 2.8 1.4 2.8 2.7 0 2.6-2.1 4.2-5.1 5.8zm6.4 0c1.8-1 3-2.2 3-3.3 0-.4-.3-.9-.7-1.1l-1.2 1c-.7-.2-1.3-.9-1.3-2 0-2 1.6-2.7 2.6-2.7 2.1 0 2.8 1.4 2.8 2.7 0 2.6-2.1 4.2-5.1 5.8z" class="st0"/></g></svg>