<svg xmlns="http://www.w3.org/2000/svg" xml:space="preserve" id="Layer_1" x="0" y="0" viewBox="0 0 120 120"><style>.st0,.st1{fill-rule:evenodd;clip-rule:evenodd;fill:#fff}.st1{fill:none;stroke:#fff;stroke-width:3;stroke-miterlimit:10}</style><path d="M143 628.3c.9-.7 1-1.9.4-2.8-.7-.9-1.9-1-2.8-.4 0 0-.1 0-.1.1-2.2 1.7-3.9 3.9-5.2 6.4-.5 1-.2 2.2.8 2.7s2.2.2 2.7-.8v-.1q1.65-3 4.2-5.1m22.6-3.1c-.8-.7-2.1-.6-2.8.2s-.6 2.1.2 2.8c0 0 .1 0 .1.1 1.7 1.4 3.2 3.1 4.2 5.1.5 1 1.7 1.4 2.7.9s1.4-1.7.9-2.7c-1.4-2.5-3.2-4.6-5.3-6.4m-26.5 15.5c0-7.7 6.3-14 14-14s14 6.3 14 14v7.5l3.6 7.3c.5 1.1.1 2.4-1 2.9-.3.2-.6.2-1 .2h-31.3c-1.2 0-2.2-1-2.2-2.2 0-.3.1-.7.2-1l3.6-7.3v-7.4zm7.9 20h12c0 2.2-1.8 4-4 4h-4c-2.2 0-4-1.8-4-4" class="st0"/><circle cx="152.8" cy="644.8" r="33.8" class="st1"/><path d="M43.6 33.5c1.4-1.1 1.7-3.1.6-4.5s-3.1-1.7-4.5-.6l-.1.1c-3.4 2.8-6.3 6.3-8.3 10.2-.8 1.6-.3 3.5 1.3 4.3s3.5.3 4.3-1.3c0 0 0-.1.1-.1 1.6-3 3.8-5.8 6.6-8.1m36.2-4.9c-1.3-1.1-3.4-1-4.5.4-1.1 1.3-1 3.4.4 4.5l.1.1c2.8 2.2 5.1 5 6.7 8.2.8 1.6 2.7 2.2 4.3 1.4s2.2-2.7 1.4-4.3c-2.1-4-5-7.5-8.4-10.3M37.3 53.5c0-12.4 10-22.4 22.4-22.4s22.4 10 22.4 22.4v12l5.8 11.7c.9 1.7.2 3.9-1.6 4.7-.5.2-1 .4-1.6.4H34.6c-1.9 0-3.5-1.6-3.5-3.5 0-.5.1-1.1.4-1.6l5.8-11.7zm12.8 31.9h19.2c0 3.5-2.9 6.4-6.4 6.4h-6.4c-3.6 0-6.4-2.8-6.4-6.4" class="st0"/><circle cx="59.2" cy="59.9" r="54.1" class="st1"/></svg>